<svg width="38" height="261" fill="none" xmlns="http://www.w3.org/2000/svg"><path d="M1 1v258.5L26.5 234" stroke="#000"/><path d="M14 12.6l12.04-5.24v-.08L17.36 5c-.32-.08-.607-.12-.86-.12-.56 0-.98.167-1.26.5-.28.333-.427.8-.44 1.4l-.8-.24V.82l.8.22c0 .627.22 1.187.66 1.68.453.493 1.02.833 1.7 1.02l8.88 2.36c.2.053.407.08.62.08.64 0 1.12-.273 1.44-.82.32-.533.487-1.24.5-2.12l.8.24v4.7l-11.46 5v.08l8.1 2.12c.293.067.54.1.74.1.573 0 1.013-.167 1.32-.5.32-.32.487-.713.5-1.18l.8.24v5.12l-.8-.22c0-.253-.06-.5-.18-.74s-.287-.46-.5-.66c-.2-.2-.447-.38-.74-.54a5.274 5.274 0 00-.94-.36L14 13.4v-.8zm2.66 11.836c-1.907-1.16-2.86-2.587-2.86-4.28 0-.92.28-1.627.84-2.12.573-.494 1.38-.74 2.42-.74.92 0 1.84.186 2.76.56.92.386 1.747.886 2.48 1.5a7.915 7.915 0 011.8 2.06c.467.76.7 1.52.7 2.28 0 .64-.167 1.16-.5 1.56-.32.413-.733.62-1.24.62-.467 0-.947-.174-1.44-.52-.493-.347-.96-.82-1.4-1.42-.44-.587-.84-1.28-1.2-2.08-.36-.787-.64-1.627-.84-2.52a8.058 8.058 0 00-1.1-.08c-1.453 0-2.18.513-2.18 1.54 0 .493.193 1 .58 1.52.387.533.92 1.026 1.6 1.48l-.42.64zm7.2-1.14c0-.347-.133-.707-.4-1.08a5.17 5.17 0 00-1.08-1.08 9.19 9.19 0 00-1.52-.92 10.651 10.651 0 00-1.78-.68c.173.64.4 1.233.68 1.78a6.57 6.57 0 00.94 1.4c.36.4.733.713 1.12.94.4.226.8.34 1.2.34.56 0 .84-.234.84-.7zm-5.2 9.12c-.907-.213-1.653-.32-2.24-.32-1.027 0-1.54.354-1.54 1.06 0 .44.187.9.56 1.38.373.48.967 1.034 1.78 1.66l-.36.6a6.75 6.75 0 01-1.24-.84 6.53 6.53 0 01-.98-1.04 4.653 4.653 0 01-.62-1.12 2.994 2.994 0 01-.22-1.1c0-.613.207-1.12.62-1.52.427-.386 1.013-.62 1.76-.7l.02-.06a4.76 4.76 0 01-.98-.72 5.091 5.091 0 01-.76-.86c-.2-.306-.36-.633-.48-.98a2.88 2.88 0 01-.18-.98c0-.52.147-.94.44-1.26.293-.333.673-.5 1.14-.5.373 0 .673.107.9.32.227.214.34.5.34.86 0 .334-.087.56-.26.68-.173.12-.367.207-.58.26-.2.067-.387.134-.56.2-.173.08-.26.234-.26.46 0 .214.087.434.26.66.173.227.42.447.74.66.333.227.727.44 1.18.64.453.2.96.38 1.52.54l1.94.56c.813.24 1.46.36 1.94.36.72 0 1.08-.22 1.08-.66 0-.186-.067-.413-.2-.68a4.966 4.966 0 00-.54-.8 8.976 8.976 0 00-.78-.84 7.807 7.807 0 00-.92-.72l.36-.6c.4.174.793.427 1.18.76.387.334.733.694 1.04 1.08.307.387.553.774.74 1.16.2.4.3.76.3 1.08 0 .507-.2.927-.6 1.26-.387.334-.88.5-1.48.5a4.893 4.893 0 011.5 1.4c.387.547.58 1.074.58 1.58 0 .467-.153.86-.46 1.18-.307.32-.68.48-1.12.48-.32 0-.58-.093-.78-.28-.2-.173-.3-.413-.3-.72 0-.28.073-.48.22-.6.16-.106.333-.193.52-.26.2-.053.373-.12.52-.2.16-.066.24-.2.24-.4 0-.213-.093-.433-.28-.66a3.322 3.322 0 00-.78-.66 8.434 8.434 0 00-1.2-.58 10.52 10.52 0 00-1.5-.44l-1.22-.28zm4.28 9.983l-5.5-1.66c-.72-.226-1.267-.346-1.64-.36a.634.634 0 00-.32.08c-.093.067-.14.174-.14.32 0 .24.087.494.26.76.187.267.4.52.64.76.253.254.507.474.76.66.267.2.473.347.62.44l-.34.58a7.204 7.204 0 01-1.32-.86 8.567 8.567 0 01-1.1-1.1 6.22 6.22 0 01-.78-1.18c-.187-.386-.28-.74-.28-1.06 0-.466.1-.806.3-1.02.2-.2.533-.3 1-.3.267 0 .627.047 1.08.14.453.094 1.073.254 1.86.48l4.9 1.48v-1.72l.92.26v1.74l3.44 1.04v1.84l-3.44-1.04v2.18l-.92-.28V42.4zm-5.62 17.883c-.707-.16-1.22-.24-1.54-.24-.387 0-.647.126-.78.38-.133.253-.2.746-.2 1.48l-.8-.2v-5.92l.8.2c0 .386.027.706.08.96.067.253.187.46.36.62.187.173.447.32.78.44s.773.24 1.32.36l2.46.54v-4.3l-1.32-1.26c-.573-.547-1.04-.98-1.4-1.3a14.38 14.38 0 00-.84-.7c-.213-.16-.373-.26-.48-.3a.815.815 0 00-.28-.06c-.253 0-.433.106-.54.32-.093.226-.14.62-.14 1.18l-.8-.2v-5.18l.8.2c0 .32.06.64.18.96.133.306.347.646.64 1.02.293.386.68.806 1.16 1.26a40.964 40.964 0 001.84 1.62l10.98 9.22v1.68l-12.28-2.78zm3.48-1.2l6.2 1.64v-.08l-6.2-5.18v3.62zm1.02 4.975c.333.146.673.366 1.02.66.36.306.68.633.96.98.293.36.533.72.72 1.08.187.36.28.673.28.94 0 .32-.12.553-.36.7-.24.146-.627.22-1.16.22-.213 0-.42-.014-.62-.04a5.481 5.481 0 01-.7-.1l-.06.06c.387.16.767.386 1.14.68.373.293.7.606.98.94.293.346.527.693.7 1.04.187.36.28.693.28 1 0 .386-.127.706-.38.96-.24.266-.54.4-.9.4-.347 0-.633-.114-.86-.34-.227-.214-.34-.494-.34-.84 0-.214.04-.387.12-.52.08-.12.16-.227.24-.32l.26-.26c.08-.08.12-.18.12-.3 0-.254-.173-.547-.52-.88-.333-.334-.793-.68-1.38-1.04-.587-.36-1.273-.72-2.06-1.08a26.66 26.66 0 00-2.54-.96l-2.76-.9v-1.86l4.14 1.3c.8.253 1.46.46 1.98.62.533.173.973.306 1.32.4.36.093.64.153.84.18.2.04.373.06.52.06.293 0 .44-.1.44-.3 0-.134-.053-.3-.16-.5a3.649 3.649 0 00-.4-.56 5.173 5.173 0 00-.54-.54 2.55 2.55 0 00-.58-.36l.26-.52zm1.12 13.537l-5.5-1.66c-.72-.226-1.267-.346-1.64-.36a.634.634 0 00-.32.08c-.093.067-.14.174-.14.32 0 .24.087.494.26.76.187.267.4.52.64.76.253.254.507.474.76.66.267.2.473.347.62.44l-.34.58a7.204 7.204 0 01-1.32-.86 8.567 8.567 0 01-1.1-1.1 6.22 6.22 0 01-.78-1.18c-.187-.386-.28-.74-.28-1.06 0-.466.1-.806.3-1.02.2-.2.533-.3 1-.3.267 0 .627.047 1.08.14.453.094 1.073.254 1.86.48l4.9 1.48v-1.72l.92.26v1.74l3.44 1.04v1.84l-3.44-1.04v2.18l-.92-.28v-2.18zM20.6 82.82c.52.187.94.32 1.26.4.32.08.573.12.76.12.187 0 .307-.033.36-.1.067-.053.1-.113.1-.18 0-.146-.073-.306-.22-.48a4.263 4.263 0 00-.48-.52 5.68 5.68 0 00-.56-.46 3.618 3.618 0 00-.44-.28l.36-.58c.293.16.62.38.98.66.36.294.693.62 1 .98.307.36.56.734.76 1.12.213.387.32.754.32 1.1 0 .334-.1.58-.3.74-.187.174-.533.26-1.04.26-.387 0-.907-.12-1.56-.36-.653-.226-1.493-.526-2.52-.9l-2.02-.74a12.55 12.55 0 00-.32-.12c-.133-.04-.28-.086-.44-.14l-.44-.12a2.104 2.104 0 00-.36-.04.537.537 0 00-.32.1c-.093.067-.14.174-.14.32 0 .2.08.407.24.62.173.214.373.42.6.62.227.2.453.38.68.54.24.16.427.28.56.36l-.34.6c-.32-.16-.673-.38-1.06-.66a7.036 7.036 0 01-1.08-.92 5.75 5.75 0 01-.82-1.14 2.759 2.759 0 01-.32-1.28c0-.386.1-.68.3-.88.2-.186.533-.28 1-.28.387 0 .8.06 1.24.18.453.134 1.02.32 1.7.56l2.56.9zm7.48 2.94c0-.333.113-.626.34-.88.227-.24.52-.36.88-.36s.667.12.92.36.38.534.38.88c0 .374-.127.68-.38.92s-.553.36-.9.36-.64-.126-.88-.38a1.264 1.264 0 01-.36-.9zm-10.86 8.775c-1.107-.56-1.953-1.213-2.54-1.96-.587-.733-.88-1.52-.88-2.36 0-.866.293-1.56.88-2.08.6-.52 1.393-.78 2.38-.78a6.61 6.61 0 011.8.26 9.852 9.852 0 013.4 1.74 8.6 8.6 0 011.32 1.28c.373.454.667.92.88 1.4.227.494.34.974.34 1.44 0 .64-.173 1.167-.52 1.58-.347.414-.78.62-1.3.62-.333 0-.607-.1-.82-.3-.2-.186-.3-.433-.3-.74 0-.306.093-.56.28-.76.2-.186.44-.28.72-.28a.95.95 0 01.42.08c.107.054.207.08.3.08.187 0 .28-.16.28-.48 0-.44-.207-.886-.62-1.34-.413-.453-.947-.866-1.6-1.24-.653-.36-1.387-.66-2.2-.9a8.77 8.77 0 00-2.4-.34c-.64 0-1.147.12-1.52.36-.36.254-.54.6-.54 1.04 0 .24.067.487.2.74.133.267.313.534.54.8.24.267.52.52.84.76.32.254.673.48 1.06.68l-.4.7zm10.6 5.028l.72.2c.253.067.44.1.56.1.467 0 .7-.506.7-1.52l.6.16.18 3.66-13.14-3.58a10.47 10.47 0 00-.96-.24 3.562 3.562 0 00-.68-.08.537.537 0 00-.32.1c-.093.067-.14.174-.14.32 0 .214.087.44.26.68.187.24.4.467.64.68.253.227.507.427.76.6.267.174.473.3.62.38l-.34.6c-.453-.2-.893-.46-1.32-.78-.413-.32-.78-.66-1.1-1.02-.32-.36-.58-.726-.78-1.1-.187-.36-.28-.693-.28-1 0-.466.1-.813.3-1.04.2-.213.533-.32 1-.32.267 0 .627.04 1.08.12.453.08 1.073.22 1.86.42l9.78 2.66zm-11.16 10.03c-1.907-1.16-2.86-2.587-2.86-4.28 0-.92.28-1.627.84-2.12.573-.493 1.38-.74 2.42-.74.92 0 1.84.187 2.76.56.92.387 1.747.887 2.48 1.5a7.908 7.908 0 011.8 2.06c.467.76.7 1.52.7 2.28 0 .64-.167 1.16-.5 1.56-.32.413-.733.62-1.24.62-.467 0-.947-.173-1.44-.52-.493-.347-.96-.82-1.4-1.42-.44-.587-.84-1.28-1.2-2.08-.36-.787-.64-1.627-.84-2.52a7.598 7.598 0 00-1.1-.08c-1.453 0-2.18.513-2.18 1.54 0 .493.193 1 .58 1.52.387.533.92 1.027 1.6 1.48l-.42.64zm7.2-1.14c0-.347-.133-.707-.4-1.08a5.185 5.185 0 00-1.08-1.08 9.21 9.21 0 00-1.52-.92 10.616 10.616 0 00-1.78-.68c.173.64.4 1.233.68 1.78a6.56 6.56 0 00.94 1.4c.36.4.733.713 1.12.94.4.227.8.34 1.2.34.56 0 .84-.233.84-.7z" fill="#000"/></svg>